<svg width="38" height="39" viewBox="0 0 38 39" fill="none" xmlns="http://www.w3.org/2000/svg">
<path d="M37.3773 15.2476C39.4714 36.0653 27.3433 37.8001 21.6719 38.2338C12.5105 38.2338 6.40283 33.463 4.65777 31.2945C-7.91712 15.6682 8.80878 5.16757 10.1176 4.73387C11.4263 4.30017 34.7598 -10.7746 37.3773 15.2476Z" fill="#131108"/>
<path d="M23.4545 13.1854V11.3026C23.4296 10.1531 22.9494 9.05894 22.1167 8.25467C21.284 7.4504 20.1652 7 19 7C17.8348 7 16.716 7.4504 15.8833 8.25467C15.0506 9.05894 14.5704 10.1531 14.5455 11.3026V13.1874H12.8899L12 27H26L25.1081 13.1854H23.4545ZM22.1818 13.1854H15.8182V11.3026C15.8392 10.4836 16.1836 9.70519 16.778 9.1333C17.3725 8.56141 18.1698 8.24132 19 8.24132C19.8302 8.24132 20.6275 8.56141 21.222 9.1333C21.8164 9.70519 22.1608 10.4836 22.1818 11.3026V13.1854Z" fill="#EFD3AC"/>
</svg>
