<svg width="14" height="22" viewBox="0 0 14 22" fill="none" xmlns="http://www.w3.org/2000/svg">
<path d="M6.875 2.0625C8.69836 2.0625 10.447 2.79769 11.7364 4.10635C13.0257 5.415 13.75 7.18991 13.75 9.04062C13.75 14.2742 6.875 22 6.875 22C6.875 22 0 14.2742 0 9.04062C0 7.18991 0.724328 5.415 2.01364 4.10635C3.30295 2.79769 5.05164 2.0625 6.875 2.0625Z" fill="#131108"/>
<circle cx="6.875" cy="8.9375" r="5.67188" stroke="#92897D" stroke-width="0.34375"/>
<path d="M4.63904 11.8412L5.33479 11.7277V6.22225L4.63904 6.11637V5.95H7.01367C7.75983 5.95 8.31442 6.10881 8.67742 6.42644C9.04042 6.74406 9.22192 7.20285 9.22192 7.80281C9.22192 8.40277 9.04042 8.86156 8.67742 9.17919C8.31442 9.49681 7.75983 9.65562 7.01367 9.65562H6.16667V11.7277L6.86242 11.8412V12H4.63904V11.8412ZM6.90779 9.47412C7.8405 9.47412 8.30685 8.96744 8.30685 7.95406V7.65156C8.30685 6.64323 7.8405 6.13906 6.90779 6.13906H6.16667V9.47412H6.90779Z" fill="#EFD3AC"/>
</svg>
