<svg width="22" height="16" viewBox="0 0 22 16" fill="none" xmlns="http://www.w3.org/2000/svg">
<path d="M9.65234 6.6C9.65234 8.16 9.41234 9.5 8.93234 10.62C8.45234 11.78 7.83234 12.72 7.07234 13.44C6.31234 14.2 5.45234 14.74 4.49234 15.06C3.49234 15.42 2.51234 15.6 1.55234 15.6L1.55234 13.5C2.59234 13.5 3.57234 13.14 4.49234 12.42C5.37234 11.74 5.89234 10.8 6.05234 9.6C5.93234 9.64 5.79234 9.68 5.63234 9.72C5.51234 9.76 5.37234 9.8 5.21234 9.84C5.01234 9.88 4.79234 9.9 4.55234 9.9C3.35234 9.9 2.35234 9.44 1.55234 8.52C0.752342 7.64 0.352342 6.6 0.352342 5.4C0.352342 4.2 0.772343 3.14 1.61234 2.22C2.41234 1.34 3.49234 0.9 4.85234 0.9C6.37234 0.9 7.55234 1.46 8.39234 2.58C9.23234 3.74 9.65234 5.08 9.65234 6.6ZM21.6523 6.6C21.6523 8.16 21.4123 9.5 20.9323 10.62C20.4523 11.78 19.8323 12.72 19.0723 13.44C18.3123 14.2 17.4523 14.74 16.4923 15.06C15.4923 15.42 14.5123 15.6 13.5523 15.6L13.5523 13.5C14.5923 13.5 15.5723 13.14 16.4923 12.42C17.3723 11.74 17.8923 10.8 18.0523 9.6C17.9323 9.64 17.7923 9.68 17.6323 9.72C17.5123 9.76 17.3723 9.8 17.2123 9.84C17.0123 9.88 16.7923 9.9 16.5523 9.9C15.3523 9.9 14.3523 9.44 13.5523 8.52C12.7523 7.64 12.3523 6.6 12.3523 5.4C12.3523 4.2 12.7723 3.14 13.6123 2.22C14.4123 1.34 15.4923 0.900001 16.8523 0.900001C18.3723 0.900001 19.5523 1.46 20.3923 2.58C21.2323 3.74 21.6523 5.08 21.6523 6.6Z" fill="#131108"/>
</svg>
