<svg width="22" height="16" viewBox="0 0 22 16" fill="none" xmlns="http://www.w3.org/2000/svg">
<path d="M12.3477 9.4C12.3477 7.84 12.5877 6.5 13.0677 5.38C13.5477 4.22 14.1677 3.28 14.9277 2.56C15.6877 1.8 16.5477 1.26 17.5077 0.939998C18.5077 0.579998 19.4877 0.399998 20.4477 0.399998V2.5C19.4077 2.5 18.4277 2.86 17.5077 3.58C16.6277 4.26 16.1077 5.2 15.9477 6.4C16.0677 6.36 16.2077 6.32 16.3677 6.28C16.4877 6.24 16.6277 6.2 16.7877 6.16C16.9877 6.12 17.2077 6.1 17.4477 6.1C18.6477 6.1 19.6477 6.56 20.4477 7.48C21.2477 8.36 21.6477 9.4 21.6477 10.6C21.6477 11.8 21.2277 12.86 20.3877 13.78C19.5877 14.66 18.5077 15.1 17.1477 15.1C15.6277 15.1 14.4477 14.54 13.6077 13.42C12.7677 12.26 12.3477 10.92 12.3477 9.4ZM0.347656 9.4C0.347656 7.84 0.587656 6.5 1.06766 5.38C1.54766 4.22 2.16766 3.28 2.92766 2.56C3.68766 1.8 4.54766 1.26 5.50766 0.939998C6.50766 0.579998 7.48766 0.399998 8.44766 0.399998V2.5C7.40766 2.5 6.42766 2.86 5.50766 3.58C4.62766 4.26 4.10766 5.2 3.94766 6.4C4.06766 6.36 4.20766 6.32 4.36766 6.28C4.48766 6.24 4.62766 6.2 4.78766 6.16C4.98766 6.12 5.20766 6.1 5.44766 6.1C6.64766 6.1 7.64766 6.56 8.44766 7.48C9.24766 8.36 9.64766 9.4 9.64766 10.6C9.64766 11.8 9.22766 12.86 8.38766 13.78C7.58766 14.66 6.50766 15.1 5.14766 15.1C3.62766 15.1 2.44766 14.54 1.60766 13.42C0.767656 12.26 0.347656 10.92 0.347656 9.4Z" fill="#131108"/>
</svg>
