<svg width="8" height="9" viewBox="0 0 8 9" fill="none" xmlns="http://www.w3.org/2000/svg">
<path d="M2.66667 4.05H1.77778V4.95H2.66667V4.05ZM4.44444 4.05H3.55556V4.95H4.44444V4.05ZM6.22222 4.05H5.33333V4.95H6.22222V4.05ZM7.11111 0.9H6.66667V0H5.77778V0.9H2.22222V0H1.33333V0.9H0.888889C0.395556 0.9 0.00444444 1.305 0.00444444 1.8L0 8.1C0 8.33869 0.0936505 8.56761 0.260349 8.7364C0.427048 8.90518 0.653141 9 0.888889 9H7.11111C7.6 9 8 8.595 8 8.1V1.8C8 1.305 7.6 0.9 7.11111 0.9ZM7.11111 8.1H0.888889V3.15H7.11111V8.1Z" fill="#92897D"/>
</svg>
