<svg width="9" height="9" viewBox="0 0 9 9" fill="none" xmlns="http://www.w3.org/2000/svg">
<path d="M8.90767 7.56274C8.39787 8.78525 7.20257 8.99951 6.81197 8.99951C6.69727 8.99951 4.91098 9.09423 2.34318 6.65791C0.276684 4.69721 0.0241846 2.58877 0.00218462 2.18816C-0.0192153 1.79796 0.0924845 0.819115 1.43868 0.0918284C1.60548 0.00170538 1.93618 -0.0382048 2.02158 0.047217C2.05948 0.0851267 3.18938 1.9449 3.21908 2.00652C3.24878 2.06803 3.26368 2.12865 3.26368 2.18806C3.26368 2.27299 3.20318 2.37921 3.08208 2.50665C2.96108 2.63408 2.82948 2.75091 2.68718 2.85704C2.54488 2.96326 2.41328 3.07579 2.29218 3.19472C2.17118 3.31355 2.11068 3.41138 2.11068 3.4878C2.11888 3.68615 2.28138 4.39663 3.51928 5.48461C4.75738 6.57289 5.35378 6.87946 5.41107 6.90067C5.46847 6.92188 5.51617 6.93238 5.55437 6.93238C5.63087 6.93238 5.72857 6.87196 5.84747 6.75093C5.96627 6.6298 6.36597 6.08186 6.49337 5.96073C6.62077 5.8398 6.72697 5.77928 6.81197 5.77928C6.87137 5.77928 6.93187 5.79409 6.99337 5.82379C7.05497 5.8535 8.91667 6.94318 8.95227 6.97959C9.04887 7.07862 8.98067 7.3877 8.90767 7.56274Z" fill="#4E4D4D"/>
</svg>
