<svg width="18" height="18" viewBox="0 0 18 18" fill="none" xmlns="http://www.w3.org/2000/svg">
<path d="M13.2426 4.75729C10.9032 2.4178 7.09685 2.4178 4.75736 4.75729C2.41787 7.09677 2.41787 10.9031 4.75736 13.2426C7.09685 15.5821 10.9032 15.5821 13.2426 13.2426C15.5821 10.9031 15.5821 7.09677 13.2426 4.75729ZM10.5026 11.2096L9 9.70699L7.49738 11.2096C7.30219 11.4048 6.9855 11.4048 6.79031 11.2096C6.59513 11.0144 6.59513 10.6977 6.79031 10.5026L8.29294 8.99993L6.79031 7.49731C6.59513 7.30212 6.59513 6.98543 6.79031 6.79024C6.9855 6.59506 7.30219 6.59506 7.49738 6.79024L9 8.29287L10.5026 6.79024C10.6978 6.59506 11.0145 6.59506 11.2097 6.79024C11.4049 6.98543 11.4049 7.30212 11.2097 7.49731L9.70706 8.99993L11.2097 10.5026C11.4049 10.6977 11.4049 11.0144 11.2097 11.2096C11.0145 11.4048 10.6978 11.4048 10.5026 11.2096Z" fill="#131108"/>
</svg>
