<svg width="28" height="17" viewBox="0 0 28 17" fill="none" xmlns="http://www.w3.org/2000/svg">
<path d="M19.3815 2.595e-07C17.2811 0.000561709 15.3666 0.796698 13.9237 2.10431C12.4796 0.798382 10.5662 0.00168475 8.46805 0.00168475C8.45064 0.00168475 8.43268 0.00168475 8.41583 0.00168475C3.94782 0.0308801 0.329834 3.66571 0.329834 8.1399C0.329834 12.6321 3.97589 16.2776 8.46749 16.2776C10.5656 16.2776 12.479 15.482 13.9225 14.1749C13.621 13.9026 13.3482 13.6011 13.0905 13.2856H14.7709C14.5177 13.5961 14.2414 13.8869 13.9444 14.1575H13.9433C13.9366 14.1648 13.9293 14.1693 13.9225 14.1755C15.3671 15.4837 17.2828 16.2809 19.3843 16.2804C23.8787 16.2787 27.5208 12.6337 27.5197 8.1399C27.5197 8.13822 27.5197 8.13709 27.5197 8.13597C27.5203 3.64213 23.8759 -0.00112264 19.3815 2.595e-07ZM13.1837 2.94481H14.7305C14.9584 3.22104 15.1701 3.51187 15.3621 3.81618H12.6026C12.7805 3.52534 12.9759 3.22609 13.1837 2.94481ZM12.122 4.6707H15.8315C15.9634 4.95255 16.0802 5.24394 16.1824 5.54263H11.6823C11.7273 5.45842 11.8845 5.1193 12.122 4.6707ZM3.65193 10.2128L4.14545 7.10122L3.03209 10.2128H2.43527L2.35779 7.10122L1.83059 10.2128H0.994591L1.68742 6.08612H2.9518L2.99616 8.61826L3.85012 6.08612H5.22175L4.53846 10.2128H3.65193ZM6.60797 10.206L6.6366 9.87646C6.62313 9.87815 6.35924 10.2745 5.74782 10.2745C5.4278 10.2745 4.91126 10.0999 4.91126 9.34084C4.91126 8.37571 5.69842 8.05568 6.44795 8.05568C6.56586 8.05568 6.82019 8.07702 6.82019 8.07702C6.82019 8.07702 6.84883 8.01807 6.84883 7.85861C6.84883 7.59642 6.61302 7.56048 6.29019 7.56048C5.72144 7.56048 5.34583 7.71264 5.34583 7.71264L5.47159 6.96591C5.47159 6.96591 5.92749 6.77502 6.52094 6.77502C6.82805 6.77502 7.71122 6.80758 7.71122 7.81987L7.37098 10.206H6.60797ZM9.83237 9.155C9.83237 10.3065 8.71677 10.2571 8.52195 10.2571C7.79487 10.2571 7.57029 10.1566 7.54952 10.151L7.66518 9.39306C7.6663 9.38632 8.03012 9.525 8.43492 9.525C8.66849 9.525 8.97167 9.50198 8.97167 9.22294C8.97167 8.80522 7.88695 8.90516 7.88695 7.91307C7.88695 7.03777 8.53711 6.78175 9.17828 6.78175C9.67348 6.78175 9.97779 6.84969 9.97779 6.84969L9.86831 7.61438C9.86831 7.61438 9.39837 7.57564 9.27654 7.57564C8.9683 7.57564 8.80043 7.64302 8.80043 7.85861C8.79987 8.29205 9.83237 8.07983 9.83237 9.155ZM11.172 9.45706C11.2489 9.45706 11.3359 9.43067 11.3954 9.43067L11.2871 10.1667C11.2001 10.1909 10.9536 10.2785 10.6375 10.2807C10.2338 10.2841 9.94691 10.0584 9.94691 9.54633C9.94691 9.20273 10.4393 6.37133 10.4584 6.35281H11.3247L11.2366 6.85923H11.6689L11.5583 7.67502H11.0996L10.8559 9.17802C10.8374 9.29761 10.8705 9.45706 11.172 9.45706ZM13.0776 6.76379C14.0286 6.76379 14.3133 7.45999 14.3133 8.03098C14.3133 8.25949 14.1988 8.82094 14.1988 8.82094H12.4381C12.4381 8.82094 12.2752 9.51433 13.2056 9.51433C13.6418 9.51433 14.1258 9.30098 14.1258 9.30098L13.9731 10.1359C13.9731 10.1359 13.6935 10.2785 13.0579 10.2785C12.369 10.2785 11.5611 9.98707 11.5611 8.76311C11.5616 7.70253 12.2062 6.76379 13.0776 6.76379ZM15.3722 12.4473H12.4852C12.3095 12.1666 12.1455 11.8786 12.0046 11.576H15.8466C15.7051 11.8769 15.5468 12.1677 15.3722 12.4473ZM15.1785 10.2189H14.2892L14.8298 6.86036H15.6366L15.5592 7.34713C15.5592 7.34713 15.8466 6.81769 16.2346 6.81769C16.3474 6.81769 16.4019 6.82892 16.4019 6.82892C16.2868 7.0636 16.1852 7.27864 16.0796 7.83391C15.4777 7.62056 15.4317 8.78444 15.1785 10.2189ZM18.5668 10.1667C18.5668 10.1667 18.1008 10.2858 17.8089 10.2858C16.7747 10.2858 16.2497 9.57216 16.2497 8.49137C16.2497 6.86148 17.2227 5.99348 18.2227 5.99348C18.6746 5.99348 19.1985 6.20571 19.1985 6.20571L19.057 7.12368C19.057 7.12368 18.7027 6.87608 18.262 6.87608C17.6725 6.87608 17.1436 7.43865 17.1436 8.46105C17.1436 8.96467 17.39 9.43404 18.0054 9.43404C18.2979 9.43404 18.7218 9.22125 18.7218 9.22125L18.5668 10.1667ZM20.6526 10.2077L20.6818 9.8759C20.6678 9.87759 20.4039 10.274 19.7931 10.274C19.473 10.274 18.9565 10.0994 18.9565 9.34028C18.9565 8.37515 19.7436 8.05512 20.4926 8.05512C20.6105 8.05512 20.8654 8.07646 20.8654 8.07646C20.8654 8.07646 20.8946 8.01807 20.8946 7.85861C20.8946 7.59642 20.6588 7.56048 20.3354 7.56048C19.7667 7.56048 19.3916 7.71264 19.3916 7.71264L19.5174 6.96591C19.5174 6.96591 19.9733 6.77502 20.5673 6.77502C20.8738 6.77502 21.7576 6.80758 21.757 7.81987L21.4168 10.206C21.4162 10.2077 20.6526 10.2077 20.6526 10.2077ZM22.4532 10.2189H21.5639L22.1045 6.86036H22.9119L22.8344 7.34713C22.8344 7.34713 23.1224 6.81769 23.5104 6.81769C23.6233 6.81769 23.6772 6.82892 23.6772 6.82892C23.5626 7.0636 23.4599 7.27864 23.3549 7.83391C22.7525 7.62056 22.7064 8.78444 22.4532 10.2189ZM25.1083 10.21L25.1459 9.90061C25.1459 9.90061 24.8585 10.2633 24.3386 10.2633C23.6182 10.2633 23.2651 9.56767 23.2651 8.85687C23.2651 7.75755 23.9264 6.79916 24.7203 6.79916C25.2313 6.80028 25.5575 7.25113 25.5575 7.25113L25.745 6.09173L26.6135 6.09005L25.951 10.21H25.1083ZM26.8218 10.0937C26.7988 10.1353 26.7663 10.1673 26.7247 10.192C26.6837 10.215 26.6399 10.2268 26.5939 10.2268C26.549 10.2268 26.5057 10.215 26.4642 10.192C26.4227 10.1673 26.3901 10.1353 26.3671 10.0937C26.3435 10.0516 26.3323 10.009 26.3323 9.96349C26.3323 9.91745 26.344 9.87366 26.3671 9.83211C26.3901 9.79056 26.4243 9.75688 26.4653 9.73442C26.508 9.7114 26.5501 9.69961 26.5939 9.69961C26.6388 9.69961 26.6815 9.7114 26.723 9.73442C26.7657 9.75744 26.7983 9.78944 26.8218 9.83211C26.846 9.87422 26.8567 9.91801 26.8567 9.96349C26.8567 10.009 26.8454 10.0522 26.8218 10.0937Z" fill="black"/>
<path d="M26.7521 12.5766C26.7465 12.5727 26.7414 12.5665 26.7325 12.5632C26.7235 12.5598 26.7094 12.5581 26.6875 12.5581H26.6348V12.6423H26.6909C26.7173 12.6423 26.7347 12.6401 26.7448 12.6305C26.7544 12.6227 26.7588 12.6131 26.7588 12.5997C26.7588 12.5907 26.7566 12.5845 26.7521 12.5766Z" fill="black"/>
<path d="M26.9338 12.527C26.9097 12.4832 26.8766 12.4524 26.8344 12.4293C26.7923 12.4063 26.7497 12.3945 26.7059 12.3945C26.661 12.3945 26.6183 12.4063 26.5767 12.4293C26.5352 12.4524 26.5009 12.4844 26.4779 12.527C26.4538 12.5686 26.4431 12.6124 26.4431 12.6573C26.4431 12.7022 26.4549 12.7466 26.4779 12.7875C26.5021 12.8291 26.5346 12.8628 26.5756 12.8858C26.6172 12.9088 26.661 12.9206 26.707 12.9206C26.7519 12.9206 26.7957 12.9088 26.8367 12.8858C26.8777 12.8628 26.9108 12.8291 26.9338 12.7875C26.9574 12.7466 26.9686 12.7028 26.9686 12.6573C26.9686 12.6118 26.9568 12.568 26.9338 12.527ZM26.7721 12.8033L26.7474 12.7589C26.7278 12.7241 26.7115 12.7011 26.6991 12.6921C26.6913 12.6865 26.6789 12.682 26.6632 12.682H26.6368V12.8027H26.5908V12.5192H26.6885C26.7222 12.5192 26.7463 12.522 26.7598 12.5276C26.7749 12.5332 26.7878 12.5411 26.7957 12.5551C26.8047 12.568 26.8086 12.5821 26.8086 12.5967C26.8086 12.6174 26.8008 12.6348 26.7867 12.6511C26.7721 12.6657 26.7519 12.6753 26.7278 12.6769C26.7379 12.6803 26.7457 12.6859 26.7519 12.6921C26.7637 12.7033 26.7772 12.7219 26.794 12.7477L26.8288 12.8033H26.7721Z" fill="black"/>
<path d="M6.51821 8.69995C5.88321 8.69995 5.75464 8.98517 5.75464 9.22266C5.75464 9.34506 5.82482 9.54943 6.09375 9.54943C6.61534 9.54943 6.7237 8.86558 6.70686 8.72016C6.68215 8.71511 6.66643 8.70051 6.51821 8.69995Z" fill="black"/>
<path d="M13.0812 7.53955C12.609 7.53955 12.5181 8.07686 12.5181 8.13357H13.4798C13.4798 8.09033 13.5702 7.53955 13.0812 7.53955Z" fill="black"/>
<path d="M24.8702 7.63306C24.4889 7.63306 24.1874 8.07548 24.188 8.74753C24.188 9.15739 24.334 9.42015 24.6461 9.42015C25.1155 9.42015 25.3418 8.80761 25.3418 8.35115C25.3418 7.84753 25.1818 7.63306 24.8702 7.63306Z" fill="black"/>
<path d="M26.7822 9.8545C26.7625 9.81969 26.735 9.79274 26.7002 9.77309C26.6654 9.75344 26.63 9.7439 26.593 9.7439C26.5571 9.7439 26.5206 9.754 26.4858 9.77309C26.4509 9.79106 26.4234 9.81913 26.4038 9.8545C26.3841 9.88987 26.374 9.92749 26.374 9.96398C26.374 10.0016 26.3841 10.0387 26.4027 10.0729C26.4234 10.1077 26.4498 10.1341 26.4846 10.1549C26.5194 10.174 26.5554 10.1852 26.593 10.1852C26.6306 10.1852 26.6677 10.174 26.7013 10.1549C26.7362 10.1352 26.7631 10.1083 26.7833 10.0729C26.803 10.0381 26.812 10.0016 26.812 9.96398C26.812 9.92693 26.8018 9.88987 26.7822 9.8545ZM26.6604 10.1083L26.6351 10.0645C26.6154 10.0291 26.5997 10.0067 26.5879 9.99823C26.5784 9.99093 26.5672 9.98757 26.5509 9.98757H26.5251V10.1077H26.4779V9.82475H26.5761C26.6093 9.82475 26.634 9.82755 26.648 9.83373C26.662 9.83878 26.6744 9.84833 26.6839 9.86068C26.6935 9.87303 26.6969 9.88707 26.6969 9.90223C26.6969 9.923 26.689 9.9404 26.6744 9.95612C26.6598 9.97241 26.6396 9.97914 26.616 9.98195C26.6272 9.98644 26.6345 9.9915 26.6402 9.99655C26.6519 10.0083 26.6654 10.0252 26.6817 10.0521L26.7165 10.1083H26.6604Z" fill="black"/>
<path d="M20.5636 8.69995C19.9286 8.69995 19.8 8.98517 19.8 9.22266C19.8 9.34506 19.8697 9.54943 20.1392 9.54943C20.6608 9.54943 20.7685 8.86558 20.7523 8.72016C20.727 8.71511 20.7113 8.70051 20.5636 8.69995Z" fill="black"/>
<path d="M26.6414 9.88244C26.6369 9.87683 26.6307 9.87234 26.6223 9.86841C26.6127 9.8656 26.5987 9.86279 26.5762 9.86279V9.86335H26.5251V9.94869H26.5807C26.6071 9.94869 26.6245 9.94533 26.6352 9.9369C26.6436 9.92848 26.6487 9.91781 26.6487 9.90546C26.6487 9.89592 26.6464 9.8903 26.6414 9.88244Z" fill="black"/>
</svg>
