<svg width="33" height="14" viewBox="0 0 33 14" fill="none" xmlns="http://www.w3.org/2000/svg">
<path d="M6.12109 1.71232C6.49652 1.24532 6.76468 0.622662 6.68423 0C6.12109 0.0259443 5.45069 0.36322 5.04845 0.804272C4.69984 1.19344 4.37805 1.84204 4.4585 2.43876C5.10209 2.51659 5.71885 2.17932 6.12109 1.71232ZM6.68423 2.59443C5.77249 2.54254 4.99482 3.08737 4.56576 3.08737C4.13671 3.08737 3.46631 2.62037 2.74228 2.62037C1.80371 2.64632 0.945602 3.13926 0.462914 3.96947C-0.502463 5.60396 0.194754 8.01678 1.16013 9.33994C1.616 9.98854 2.17914 10.715 2.90317 10.689C3.60039 10.6631 3.86855 10.248 4.69984 10.248C5.53114 10.248 5.77249 10.689 6.52333 10.6631C7.27418 10.6371 7.75687 10.0145 8.21274 9.33994C8.74906 8.58755 8.96359 7.86111 8.96359 7.83517C8.93678 7.80923 7.48871 7.29034 7.48871 5.68179C7.46189 4.33269 8.61498 3.68409 8.66862 3.65814C8.05185 2.72415 7.03284 2.62037 6.68423 2.59443Z" fill="#131108"/>
<path d="M14.5679 0.752441C16.5523 0.752441 17.9199 2.0756 17.9199 3.96953C17.9199 5.88941 16.5255 7.21256 14.5143 7.21256H12.3422V10.5594H10.76V0.752441H14.5679ZM12.3422 5.9413H14.1388C15.5064 5.9413 16.2841 5.21486 16.2841 3.99548C16.2841 2.75015 15.5064 2.04965 14.1388 2.04965H12.3153V5.9413H12.3422ZM18.3221 8.56167C18.3221 7.31634 19.3143 6.53801 21.0842 6.43424L23.1222 6.33046V5.78563C23.1222 4.98136 22.5591 4.51436 21.6473 4.51436C20.7624 4.51436 20.2261 4.92947 20.092 5.55213H18.6439C18.7244 4.25492 19.8775 3.29498 21.7009 3.29498C23.4976 3.29498 24.6507 4.20303 24.6507 5.65591V10.5853H23.2026V9.41783H23.1758C22.7468 10.2221 21.8082 10.715 20.8428 10.715C19.3411 10.715 18.3221 9.83294 18.3221 8.56167ZM23.1222 7.91306V7.34229L21.2987 7.44606C20.387 7.49795 19.8775 7.88712 19.8775 8.50978C19.8775 9.13244 20.4138 9.54755 21.2183 9.54755C22.2909 9.54755 23.1222 8.84705 23.1222 7.91306ZM25.9915 13.2316V12.0382C26.0988 12.0641 26.3669 12.0641 26.4742 12.0641C27.1714 12.0641 27.5468 11.7788 27.7882 11.0523C27.7882 11.0264 27.9223 10.6113 27.9223 10.6113L25.2407 3.45065H26.8764L28.7536 9.28811H28.7804L30.6575 3.45065H32.2665L29.5044 11.0004C28.8608 12.7387 28.1368 13.2835 26.6083 13.2835C26.501 13.2576 26.1256 13.2576 25.9915 13.2316Z" fill="#131108"/>
</svg>
