<svg width="63" height="12" viewBox="0 0 63 12" fill="none" xmlns="http://www.w3.org/2000/svg">
<path d="M11.9459 9.7387H10.4124V3.90405H16.022V9.7387H14.4884V5.0195H11.9863V9.7387H11.9459Z" fill="#131108"/>
<path d="M18.0801 7.59369C18.0801 6.39244 18.7662 6.17793 19.2101 6.17793C19.6137 6.17793 20.3401 6.39244 20.3401 7.59369C20.3401 8.32302 20.0576 9.00945 19.2101 9.00945C18.3626 9.05235 18.0801 8.32302 18.0801 7.59369ZM16.7483 5.4915V11.2832H18.1608V9.30976C18.6451 9.86748 19.4119 9.91038 19.6137 9.91038C20.9858 9.91038 21.8333 8.96654 21.8333 7.63659C21.8333 6.22083 20.9858 5.36279 19.654 5.36279C19.3312 5.36279 18.6451 5.40569 18.1204 6.04922H18.0801V5.5344H16.7483V5.4915Z" fill="#131108"/>
<path d="M25.3443 9.22391C24.8197 9.73873 24.295 9.91034 23.73 9.91034C22.1964 9.91034 22.1157 8.66619 22.1157 8.15137V5.49146H23.5282V7.93686C23.5282 8.79489 23.8107 9.0094 24.3354 9.0094C25.2232 9.0094 25.3039 8.15137 25.3039 7.85105V5.49146H26.7164V9.73873H25.3039V9.22391H25.3443Z" fill="#131108"/>
<path d="M28.8555 6.34949H29.6222C30.0258 6.34949 30.389 6.43529 30.389 6.77851C30.389 7.16462 29.824 7.16462 29.6222 7.16462H28.8958V6.34949H28.8555ZM27.4026 5.49146V9.73873H30.2276C31.2769 9.73873 31.963 9.52422 31.963 8.66619C31.963 7.97976 31.5998 7.72235 30.833 7.55074V7.50784C31.3576 7.42204 31.8015 7.07882 31.8015 6.5211C31.8015 5.49145 30.6715 5.49146 30.2276 5.49146H27.4026ZM28.8555 7.93686H29.7433C30.4294 7.93686 30.5505 8.15137 30.5505 8.45168C30.5505 8.62329 30.4697 8.8807 29.7433 8.8807H28.8555V7.93686Z" fill="#131108"/>
<path d="M35.4742 7.9798C35.4742 8.83784 34.7881 9.05235 34.4249 9.05235C34.1424 9.05235 33.6985 8.96655 33.6985 8.58043C33.6985 8.10851 34.2231 8.02271 34.546 7.9798C35.111 7.894 35.0706 7.9369 35.4742 7.76529V7.9798ZM33.8195 6.86436C33.8195 6.22083 34.4249 6.17793 34.7074 6.17793C34.8688 6.17793 35.4742 6.17793 35.4742 6.73565C35.4742 6.77855 35.4742 6.82145 35.4742 6.86436C35.4338 7.29337 35.0706 7.20757 34.0213 7.33628C33.1738 7.46498 32.2456 7.67949 32.2456 8.66623C32.2456 9.00945 32.407 9.91039 33.9003 9.91039C34.4653 9.91039 35.111 9.73878 35.5145 9.35266L35.6356 9.78168H37.1288V9.69588C36.8463 9.65297 36.8463 9.35266 36.8463 8.88074L36.8867 6.95016C36.8867 6.47824 36.8463 5.36279 34.7074 5.36279C34.1828 5.36279 32.5281 5.40569 32.4474 6.90726H33.8195V6.86436Z" fill="#131108"/>
<path d="M37.0481 6.34949V5.49146H41.6488V6.34949H40.0749V9.73873H38.6624V6.34949H37.0481Z" fill="#131108"/>
<path d="M43.4648 7.20749H44.7562C45.1195 7.20749 45.8862 7.25039 45.8862 7.93682C45.8862 8.49455 45.3212 8.58035 44.7159 8.58035H43.4648V7.20749ZM43.4648 5.0195H47.0163V3.90405H41.8909V9.7387H45.0387C46.5723 9.7387 47.5409 9.18097 47.5409 7.97972C47.5409 6.09204 45.5634 6.04914 45.0387 6.04914H43.4648V5.0195Z" fill="#131108"/>
<path d="M51.0924 7.9798C51.0924 8.83784 50.4063 9.05235 50.0431 9.05235C49.7606 9.05235 49.3166 8.96655 49.3166 8.58043C49.3166 8.10851 49.8413 8.02271 50.1641 7.9798C50.7291 7.894 50.6888 7.9369 51.0924 7.76529V7.9798ZM49.4377 6.86436C49.4377 6.22083 50.0431 6.17793 50.3256 6.17793C50.487 6.17793 51.0924 6.17793 51.0924 6.73565C51.0924 6.77855 51.0924 6.82145 51.0924 6.86436C51.052 7.29337 50.6888 7.20757 49.6395 7.33628C48.792 7.46498 47.8638 7.67949 47.8638 8.66623C47.8638 9.00945 47.9848 9.91039 49.5184 9.91039C50.0834 9.91039 50.7291 9.73878 51.1327 9.35266H51.1731L51.2941 9.78168H52.7874V9.69588C52.5049 9.65297 52.5049 9.35266 52.5049 8.88074L52.5452 6.95016C52.5452 6.47824 52.5049 5.36279 50.3659 5.36279C49.8413 5.36279 48.1866 5.40569 48.1059 6.90726H49.4377V6.86436Z" fill="#131108"/>
<path d="M54.5631 9.73873H53.1506V5.49146H54.5631V7.07882H56.2985V5.49146H57.711V9.73873H56.2985V7.93686H54.5631V9.73873Z" fill="#131108"/>
<path d="M61.3028 5.49139H62.8767L60.8992 7.46487L62.9574 9.69576H61.3431L59.8095 7.85099H59.7692V9.69576H58.3567V5.44849H59.7692V7.16456H59.8095L61.3028 5.49139Z" fill="#131108"/>
<path d="M3.5918 5.92041H0V9.73867H3.5918V5.92041Z" fill="#131108"/>
<path d="M0.000244141 0V4.7621H0.928461C3.43061 4.7621 4.68169 6.09206 4.68169 8.75197V9.73871H9.16135V0H0.000244141ZM7.26455 2.01638C7.26455 3.30344 7.26455 6.43527 7.26455 7.72232C6.9417 7.72232 6.86098 7.72232 6.53812 7.72232C6.21526 4.89081 4.56062 3.13183 1.89704 2.78862C1.89704 2.4454 1.89704 2.3596 1.89704 2.01638C3.10775 2.01638 6.05384 2.01638 7.26455 2.01638Z" fill="#131108"/>
</svg>
