<svg width="10" height="13" viewBox="0 0 10 13" fill="none" xmlns="http://www.w3.org/2000/svg">
<path d="M8.84965 5.12542H8.14291V3.30326C8.14291 2.42718 7.79489 1.58698 7.17541 0.967502C6.55593 0.348021 5.71573 0 4.83965 0C3.96358 0 3.12338 0.348021 2.5039 0.967502C1.88442 1.58698 1.5364 2.42718 1.5364 3.30326V5.12542H0.829655C0.609617 5.12542 0.398591 5.21283 0.243 5.36843C0.0874098 5.52402 0 5.73504 0 5.95508V11.6705C0 11.8905 0.0874098 12.1015 0.243 12.2571C0.398591 12.4127 0.609617 12.5001 0.829655 12.5001H8.84965C8.95861 12.5001 9.06649 12.4787 9.16715 12.437C9.26781 12.3953 9.35927 12.3342 9.43631 12.2571C9.51335 12.1801 9.57446 12.0886 9.61616 11.988C9.65785 11.8873 9.67931 11.7794 9.67931 11.6705V5.95508C9.67931 5.84613 9.65785 5.73824 9.61616 5.63758C9.57446 5.53693 9.51335 5.44547 9.43631 5.36843C9.35927 5.29138 9.26781 5.23027 9.16715 5.18858C9.06649 5.14688 8.95861 5.12542 8.84965 5.12542ZM2.3046 3.30326C2.3046 2.63092 2.57168 1.98612 3.0471 1.5107C3.52251 1.03528 4.16732 0.768199 4.83965 0.768199C5.51199 0.768199 6.1568 1.03528 6.63221 1.5107C7.10763 1.98612 7.37471 2.63092 7.37471 3.30326V5.12542H2.3046V3.30326ZM5.22375 9.35974C5.22534 9.38225 5.22534 9.40483 5.22375 9.42734V10.3492C5.22375 10.451 5.18329 10.5487 5.11125 10.6208C5.03922 10.6928 4.94152 10.7333 4.83965 10.7333C4.73779 10.7333 4.64009 10.6928 4.56806 10.6208C4.49602 10.5487 4.45556 10.451 4.45556 10.3492V9.42734C4.45397 9.40483 4.45397 9.38225 4.45556 9.35974C4.2111 9.27087 4.00578 9.0987 3.87566 8.87348C3.74554 8.64825 3.69895 8.38438 3.74407 8.12822C3.78919 7.87205 3.92313 7.63998 4.12237 7.47277C4.32161 7.30555 4.5734 7.2139 4.83351 7.2139C5.09362 7.2139 5.34541 7.30555 5.54464 7.47277C5.74388 7.63998 5.87783 7.87205 5.92295 8.12822C5.96807 8.38438 5.92147 8.64825 5.79136 8.87348C5.66124 9.0987 5.45592 9.27087 5.21146 9.35974H5.22375Z" fill="#131108"/>
</svg>
