<svg width="19" height="54" viewBox="0 0 19 54" fill="none" xmlns="http://www.w3.org/2000/svg">
<path d="M19 27C19 32.2467 14.7467 36.5 9.49999 36.5C4.25329 36.5 -7.44691e-06 32.2467 -7.44691e-06 27C-7.44691e-06 21.7533 4.25329 17.5 9.49999 17.5C14.7467 17.5 19 21.7533 19 27Z" fill="#131108"/>
<path d="M9.62306 29.476H8.79506C8.69106 29.476 8.63906 29.428 8.63906 29.332C8.63906 28.828 8.73506 28.38 8.92706 27.988C9.11906 27.596 9.35106 27.28 9.62306 27.04C9.89506 26.8 10.1671 26.576 10.4391 26.368C11.0951 25.88 11.4231 25.388 11.4231 24.892C11.4231 24.388 11.2471 23.992 10.8951 23.704C10.5431 23.416 10.0511 23.272 9.41906 23.272C8.79506 23.272 8.31906 23.432 7.99106 23.752C7.67106 24.072 7.50706 24.492 7.49906 25.012C7.49906 25.108 7.45106 25.156 7.35506 25.156H6.59906C6.49506 25.156 6.44306 25.108 6.44306 25.012C6.44306 24.26 6.68706 23.624 7.17506 23.104C7.67106 22.576 8.41506 22.312 9.40706 22.312C10.3991 22.312 11.1631 22.544 11.6991 23.008C12.2431 23.472 12.5151 24.056 12.5151 24.76C12.5151 25.144 12.4471 25.492 12.3111 25.804C12.1751 26.108 12.0071 26.352 11.8071 26.536C11.6071 26.72 11.3871 26.916 11.1471 27.124C10.9071 27.324 10.6871 27.512 10.4871 27.688C10.2871 27.864 10.1191 28.096 9.98306 28.384C9.84706 28.664 9.77906 28.98 9.77906 29.332C9.77906 29.428 9.72706 29.476 9.62306 29.476ZM9.67106 30.508C9.79106 30.628 9.85106 30.776 9.85106 30.952C9.85106 31.128 9.79106 31.276 9.67106 31.396C9.55106 31.524 9.39906 31.588 9.21506 31.588C9.03906 31.588 8.88706 31.524 8.75906 31.396C8.63906 31.276 8.57906 31.128 8.57906 30.952C8.57906 30.776 8.63906 30.628 8.75906 30.508C8.88706 30.38 9.03906 30.316 9.21506 30.316C9.39906 30.316 9.55106 30.38 9.67106 30.508Z" fill="#FFFCF8"/>
</svg>
