<svg width="35" height="11" viewBox="0 0 35 11" fill="none" xmlns="http://www.w3.org/2000/svg">
<path d="M13.9159 0.177979L12.1497 10.5431H14.9745L16.7423 0.177979H13.9159Z" fill="black"/>
<path d="M9.78115 0.18968L7.0144 7.2584L6.71942 6.19108C6.17377 4.90507 4.62474 3.05815 2.80615 1.89419L5.33604 10.5381L8.32512 10.533L12.7739 0.1875L9.78115 0.18968Z" fill="black"/>
<path d="M5.64684 0.931441C5.48264 0.300059 5.00674 0.111879 4.41605 0.0893555H0.0363281L0 0.295699C3.4083 1.12253 5.66355 3.11476 6.59937 5.51024L5.64684 0.931441Z" fill="black"/>
<path d="M22.4675 2.16516C23.3917 2.15062 24.0616 2.35261 24.5818 2.56186L24.8368 2.68174L25.219 0.43521C24.6595 0.225234 23.7826 0 22.6884 0C19.8969 0 17.9294 1.4059 17.9141 3.42065C17.896 4.90938 19.3157 5.74057 20.3881 6.23681C21.4888 6.7454 21.8579 7.06873 21.8528 7.52283C21.8441 8.21669 20.9751 8.53493 20.1636 8.53493C19.0323 8.53493 18.4314 8.37872 17.5036 7.99219L17.1396 7.82653L16.7422 10.1464C17.4034 10.4363 18.6233 10.6856 19.8897 10.6986C22.8591 10.6986 24.7889 9.30944 24.8092 7.15664C24.8216 5.97888 24.0681 5.08012 22.4355 4.34266C21.4474 3.86168 20.8429 3.54199 20.8487 3.05665C20.8487 2.6258 21.3617 2.16516 22.4675 2.16516Z" fill="black"/>
<path d="M32.4686 0.189453H30.286C29.6081 0.189453 29.1039 0.374 28.806 1.0497L24.6116 10.5488H27.5781C27.5781 10.5488 28.062 9.27148 28.1717 8.99176C28.4965 8.99176 31.3788 8.99612 31.7893 8.99612C31.8736 9.35794 32.1337 10.5488 32.1337 10.5488H34.7544L32.4686 0.189453ZM28.9848 6.87019C29.2173 6.27514 30.1102 3.97339 30.1102 3.97339C30.0949 4.00173 30.3405 3.37397 30.4866 2.98381L30.6769 3.87748C30.6769 3.87748 31.2182 6.35215 31.3315 6.87019H28.9848Z" fill="black"/>
</svg>
