<svg width="34" height="14" viewBox="0 0 34 14" fill="none" xmlns="http://www.w3.org/2000/svg">
<g clip-path="url(#clip0)">
<path d="M6.44417 1.80469C6.83984 1.3125 7.12247 0.65625 7.03768 0C6.44417 0.0273438 5.7376 0.382812 5.31366 0.847656C4.94625 1.25781 4.6071 1.94141 4.69189 2.57031C5.37019 2.65234 6.02023 2.29688 6.44417 1.80469ZM7.03768 2.73438C6.07675 2.67969 5.25714 3.25391 4.80494 3.25391C4.35274 3.25391 3.64618 2.76172 2.88309 2.76172C1.8939 2.78906 0.989499 3.30859 0.480774 4.18359C-0.536677 5.90625 0.198148 8.44922 1.2156 9.84375C1.69606 10.5273 2.28958 11.293 3.05266 11.2656C3.78749 11.2383 4.07011 10.8008 4.94625 10.8008C5.82239 10.8008 6.07675 11.2656 6.8681 11.2383C7.65945 11.2109 8.16818 10.5547 8.64864 9.84375C9.21389 9.05078 9.43999 8.28516 9.43999 8.25781C9.41173 8.23047 7.88555 7.68359 7.88555 5.98828C7.85729 4.56641 9.07258 3.88281 9.1291 3.85547C8.47907 2.87109 7.40509 2.76172 7.03768 2.73438Z" fill="#EFD3AC"/>
<path d="M15.3467 0.792969C17.4381 0.792969 18.8795 2.1875 18.8795 4.18359C18.8795 6.20703 17.4098 7.60156 15.2901 7.60156H13.0009V11.1289H11.3334V0.792969H15.3467ZM13.0009 6.26172H14.8945C16.3358 6.26172 17.1555 5.49609 17.1555 4.21094C17.1555 2.89844 16.3358 2.16016 14.8945 2.16016H12.9726V6.26172H13.0009ZM19.3034 9.02344C19.3034 7.71094 20.3491 6.89062 22.2144 6.78125L24.3624 6.67188V6.09766C24.3624 5.25 23.7689 4.75781 22.808 4.75781C21.8753 4.75781 21.31 5.19531 21.1687 5.85156H19.6426C19.7273 4.48438 20.9426 3.47266 22.8645 3.47266C24.7581 3.47266 25.9734 4.42969 25.9734 5.96094V11.1562H24.4472V9.92578H24.4189C23.9667 10.7734 22.9775 11.293 21.9601 11.293C20.3774 11.293 19.3034 10.3633 19.3034 9.02344ZM24.3624 8.33984V7.73828L22.4405 7.84766C21.4796 7.90234 20.9426 8.3125 20.9426 8.96875C20.9426 9.625 21.5079 10.0625 22.3558 10.0625C23.4863 10.0625 24.3624 9.32422 24.3624 8.33984ZM27.3865 13.9453V12.6875C27.4995 12.7148 27.7822 12.7148 27.8952 12.7148C28.63 12.7148 29.0257 12.4141 29.2801 11.6484C29.2801 11.6211 29.4214 11.1836 29.4214 11.1836L26.5951 3.63672H28.3191L30.2975 9.78906H30.3258L32.3042 3.63672H33.9999L31.0889 11.5938C30.4106 13.4258 29.6475 14 28.0365 14C27.9235 13.9727 27.5278 13.9727 27.3865 13.9453Z" fill="#EFD3AC"/>
</g>
<defs>
<clipPath id="clip0">
<rect width="34" height="14" fill="white"/>
</clipPath>
</defs>
</svg>
