<svg width="26" height="15" viewBox="0 0 26 15" fill="none" xmlns="http://www.w3.org/2000/svg">
<path d="M17.5503 2.3905e-07C15.6154 0.000517443 13.8517 0.733912 12.5225 1.93848C11.1923 0.735464 9.42966 0.00155198 7.49687 0.00155198C7.48083 0.00155198 7.46428 0.00155198 7.44877 0.00155198C3.33286 0.0284466 0 3.37682 0 7.49842C0 11.6366 3.35872 14.9948 7.49635 14.9948C9.42914 14.9948 11.1918 14.2619 12.5215 13.0578C12.2438 12.807 11.9924 12.5293 11.755 12.2386H13.303C13.0697 12.5246 12.8153 12.7925 12.5417 13.0418H12.5406C12.5344 13.0485 12.5277 13.0527 12.5215 13.0584C13.8523 14.2634 15.617 14.9979 17.5529 14.9974C21.6931 14.9958 25.0482 11.6381 25.0471 7.49842C25.0471 7.49687 25.0471 7.49583 25.0471 7.4948C25.0477 3.3551 21.6905 -0.00103417 17.5503 2.3905e-07ZM11.8409 2.71273H13.2658C13.4757 2.9672 13.6707 3.23511 13.8476 3.51543H11.3056C11.4695 3.24752 11.6495 2.97185 11.8409 2.71273ZM10.8628 4.30262H14.28C14.4015 4.56225 14.5091 4.83068 14.6032 5.10583H10.4579C10.4992 5.02825 10.6441 4.71586 10.8628 4.30262ZM3.06029 9.40794L3.51492 6.54159L2.4893 9.40794H1.93951L1.86814 6.54159L1.38249 9.40794H0.612369L1.2506 5.60649H2.41534L2.4562 7.93908L3.24287 5.60649H4.5064L3.87696 9.40794H3.06029ZM5.78337 9.40173L5.80975 9.09813C5.79734 9.09968 5.55425 9.46483 4.99102 9.46483C4.69621 9.46483 4.22038 9.30398 4.22038 8.60472C4.22038 7.71565 4.9455 7.42084 5.63597 7.42084C5.74458 7.42084 5.97887 7.44049 5.97887 7.44049C5.97887 7.44049 6.00525 7.38619 6.00525 7.2393C6.00525 6.99777 5.78803 6.96466 5.49063 6.96466C4.96671 6.96466 4.6207 7.10483 4.6207 7.10483L4.73655 6.41695C4.73655 6.41695 5.15652 6.2411 5.70321 6.2411C5.98612 6.2411 6.79968 6.27109 6.79968 7.20361L6.48625 9.40173H5.78337ZM8.75367 8.43352C8.75367 9.49431 7.72599 9.44879 7.54652 9.44879C6.87674 9.44879 6.66986 9.35621 6.65072 9.35104L6.75727 8.65282C6.7583 8.64661 7.09345 8.77436 7.46635 8.77436C7.68151 8.77436 7.9608 8.75316 7.9608 8.49611C7.9608 8.11131 6.96156 8.20337 6.96156 7.28947C6.96156 6.48315 7.56048 6.2473 8.15113 6.2473C8.6073 6.2473 8.88763 6.30989 8.88763 6.30989L8.78677 7.01432C8.78677 7.01432 8.35387 6.97863 8.24164 6.97863C7.9577 6.97863 7.80305 7.04069 7.80305 7.2393C7.80253 7.63858 8.75367 7.44308 8.75367 8.43352ZM9.98772 8.71178C10.0586 8.71178 10.1387 8.68747 10.1936 8.68747L10.0937 9.36552C10.0136 9.38776 9.78653 9.46845 9.49534 9.47052C9.12347 9.47362 8.85918 9.2657 8.85918 8.79401C8.85918 8.47749 9.31277 5.86923 9.33035 5.85216H10.1284L10.0472 6.31868H10.4454L10.3436 7.07017H9.921L9.69653 8.45473C9.67947 8.56489 9.70998 8.71178 9.98772 8.71178ZM11.7431 6.23075C12.6193 6.23075 12.8815 6.87209 12.8815 7.39808C12.8815 7.60858 12.776 8.12579 12.776 8.12579H11.154C11.154 8.12579 11.004 8.76453 11.861 8.76453C12.2629 8.76453 12.7087 8.568 12.7087 8.568L12.568 9.33708C12.568 9.33708 12.3105 9.46845 11.725 9.46845C11.0904 9.46845 10.3461 9.20002 10.3461 8.07252C10.3467 7.09552 10.9404 6.23075 11.7431 6.23075ZM13.8569 11.4664H11.1975C11.0356 11.2078 10.8846 10.9425 10.7547 10.6637H14.294C14.1636 10.9409 14.0178 11.2088 13.8569 11.4664ZM13.6785 9.41362H12.8592L13.3573 6.31971H14.1005L14.0292 6.76813C14.0292 6.76813 14.294 6.2804 14.6513 6.2804C14.7553 6.2804 14.8055 6.29075 14.8055 6.29075C14.6994 6.50694 14.6058 6.70503 14.5086 7.21654C13.9542 7.02001 13.9117 8.09217 13.6785 9.41362ZM16.7998 9.36552C16.7998 9.36552 16.3705 9.47517 16.1016 9.47517C15.1489 9.47517 14.6653 8.81781 14.6653 7.82219C14.6653 6.32075 15.5616 5.52115 16.4828 5.52115C16.8991 5.52115 17.3817 5.71665 17.3817 5.71665L17.2513 6.56228C17.2513 6.56228 16.925 6.33419 16.519 6.33419C15.9759 6.33419 15.4887 6.85243 15.4887 7.79426C15.4887 8.25819 15.7158 8.69057 16.2826 8.69057C16.5521 8.69057 16.9426 8.49455 16.9426 8.49455L16.7998 9.36552ZM18.7212 9.40328L18.7481 9.09761C18.7352 9.09916 18.4921 9.46431 17.9294 9.46431C17.6346 9.46431 17.1587 9.30346 17.1587 8.6042C17.1587 7.71513 17.8839 7.42032 18.5738 7.42032C18.6824 7.42032 18.9172 7.43998 18.9172 7.43998C18.9172 7.43998 18.9441 7.38619 18.9441 7.2393C18.9441 6.99777 18.7269 6.96466 18.429 6.96466C17.9051 6.96466 17.5596 7.10483 17.5596 7.10483L17.6754 6.41695C17.6754 6.41695 18.0954 6.2411 18.6426 6.2411C18.925 6.2411 19.7391 6.27109 19.7386 7.20361L19.4251 9.40173C19.4246 9.40328 18.7212 9.40328 18.7212 9.40328ZM20.3799 9.41362H19.5606L20.0587 6.31971H20.8025L20.7311 6.76813C20.7311 6.76813 20.9964 6.2804 21.3538 6.2804C21.4577 6.2804 21.5074 6.29075 21.5074 6.29075C21.4019 6.50694 21.3072 6.70503 21.2105 7.21654C20.6556 7.02001 20.6132 8.09217 20.3799 9.41362ZM22.8258 9.40535L22.8604 9.12037C22.8604 9.12037 22.5956 9.45448 22.1167 9.45448C21.4531 9.45448 21.1278 8.81367 21.1278 8.15889C21.1278 7.1462 21.737 6.26334 22.4684 6.26334C22.939 6.26437 23.2395 6.67969 23.2395 6.67969L23.4123 5.61166L24.2124 5.61011L23.6021 9.40535H22.8258ZM24.4043 9.29829C24.3831 9.33656 24.3531 9.36604 24.3148 9.3888C24.277 9.41 24.2367 9.42087 24.1943 9.42087C24.1529 9.42087 24.1131 9.41 24.0748 9.3888C24.0365 9.36604 24.0065 9.33656 23.9853 9.29829C23.9636 9.2595 23.9533 9.22019 23.9533 9.1783C23.9533 9.13589 23.9641 9.09554 23.9853 9.05727C24.0065 9.019 24.0381 8.98797 24.0758 8.96728C24.1151 8.94607 24.1539 8.93521 24.1943 8.93521C24.2356 8.93521 24.275 8.94607 24.3132 8.96728C24.3525 8.98848 24.3825 9.01796 24.4043 9.05727C24.4265 9.09606 24.4363 9.1364 24.4363 9.1783C24.4363 9.22019 24.426 9.26002 24.4043 9.29829Z" fill="#EFD3AC"/>
<path d="M24.3397 11.5858C24.3345 11.5822 24.3299 11.5765 24.3217 11.5734C24.3134 11.5703 24.3005 11.5688 24.2805 11.5688H24.232V11.6461H24.2835C24.3078 11.6461 24.3237 11.644 24.333 11.6352C24.3418 11.628 24.3459 11.6193 24.3459 11.6069C24.3459 11.5987 24.3438 11.593 24.3397 11.5858Z" fill="#EFD3AC"/>
<path d="M24.5072 11.5394C24.4849 11.499 24.4544 11.4706 24.4156 11.4494C24.3768 11.4282 24.3375 11.4173 24.2972 11.4173C24.2558 11.4173 24.2165 11.4282 24.1782 11.4494C24.14 11.4706 24.1084 11.5 24.0872 11.5394C24.065 11.5776 24.0551 11.618 24.0551 11.6593C24.0551 11.7007 24.066 11.7416 24.0872 11.7793C24.1095 11.8176 24.1394 11.8486 24.1772 11.8699C24.2155 11.8911 24.2558 11.9019 24.2982 11.9019C24.3396 11.9019 24.3799 11.8911 24.4177 11.8699C24.4555 11.8486 24.486 11.8176 24.5072 11.7793C24.5289 11.7416 24.5392 11.7012 24.5392 11.6593C24.5392 11.6175 24.5284 11.5771 24.5072 11.5394ZM24.3582 11.7938L24.3355 11.753C24.3174 11.7209 24.3024 11.6997 24.291 11.6914C24.2837 11.6862 24.2724 11.6821 24.2579 11.6821H24.2336V11.7933H24.1912V11.5321H24.2812C24.3122 11.5321 24.3344 11.5347 24.3468 11.5399C24.3608 11.545 24.3727 11.5523 24.38 11.5652C24.3882 11.5771 24.3918 11.59 24.3918 11.6035C24.3918 11.6226 24.3846 11.6387 24.3717 11.6537C24.3582 11.6671 24.3396 11.6759 24.3174 11.6774C24.3267 11.6806 24.3339 11.6857 24.3396 11.6914C24.3505 11.7018 24.3629 11.7188 24.3784 11.7426L24.4105 11.7938H24.3582Z" fill="#EFD3AC"/>
<path d="M5.70062 8.0141C5.11566 8.0141 4.99722 8.27684 4.99722 8.49562C4.99722 8.60837 5.06187 8.79663 5.30961 8.79663C5.7901 8.79663 5.88992 8.16667 5.8744 8.03272C5.85164 8.02806 5.83716 8.01462 5.70062 8.0141Z" fill="#EFD3AC"/>
<path d="M11.7462 6.94498C11.3113 6.94498 11.2275 7.43994 11.2275 7.49218H12.1134C12.1134 7.45235 12.1967 6.94498 11.7462 6.94498Z" fill="#EFD3AC"/>
<path d="M22.6065 7.03137C22.2553 7.03137 21.9775 7.43893 21.9781 8.05802C21.9781 8.43558 22.1125 8.67763 22.4001 8.67763C22.8325 8.67763 23.0409 8.11336 23.0409 7.69288C23.0409 7.22894 22.8935 7.03137 22.6065 7.03137Z" fill="#EFD3AC"/>
<path d="M24.368 9.07793C24.3499 9.04587 24.3246 9.02104 24.2925 9.00294C24.2605 8.98484 24.2279 8.97604 24.1937 8.97604C24.1606 8.97604 24.127 8.98535 24.095 9.00294C24.0629 9.01949 24.0375 9.04535 24.0194 9.07793C24.0013 9.11052 23.992 9.14517 23.992 9.17879C23.992 9.21344 24.0013 9.24758 24.0184 9.27913C24.0375 9.31119 24.0619 9.3355 24.0939 9.35464C24.126 9.37222 24.1591 9.38257 24.1937 9.38257C24.2284 9.38257 24.2625 9.37222 24.2936 9.35464C24.3256 9.33653 24.3505 9.31171 24.3691 9.27913C24.3872 9.24706 24.3955 9.21344 24.3955 9.17879C24.3955 9.14465 24.3861 9.11052 24.368 9.07793ZM24.2558 9.31171L24.2325 9.27137C24.2144 9.23878 24.2 9.2181 24.1891 9.21034C24.1803 9.20361 24.17 9.20051 24.155 9.20051H24.1312V9.31119H24.0877V9.05052H24.1782C24.2087 9.05052 24.2315 9.05311 24.2444 9.0588C24.2574 9.06345 24.2687 9.07224 24.2775 9.08362C24.2863 9.095 24.2894 9.10793 24.2894 9.1219C24.2894 9.14103 24.2822 9.15707 24.2687 9.17155C24.2553 9.18655 24.2367 9.19275 24.2149 9.19534C24.2253 9.19948 24.232 9.20413 24.2372 9.20879C24.2481 9.21965 24.2605 9.23516 24.2755 9.25999L24.3075 9.31171H24.2558Z" fill="#EFD3AC"/>
<path d="M18.6395 8.0141C18.0545 8.0141 17.9361 8.27684 17.9361 8.49562C17.9361 8.60837 18.0002 8.79663 18.2485 8.79663C18.729 8.79663 18.8283 8.16667 18.8133 8.03272C18.79 8.02806 18.7755 8.01462 18.6395 8.0141Z" fill="#EFD3AC"/>
<path d="M24.2378 9.10372C24.2337 9.09857 24.228 9.09445 24.2203 9.09084C24.2115 9.08827 24.1986 9.08569 24.178 9.08569V9.08621H24.1311V9.16452H24.1821C24.2063 9.16452 24.2223 9.16142 24.2321 9.1537C24.2398 9.14597 24.2445 9.13618 24.2445 9.12485C24.2445 9.11609 24.2424 9.11094 24.2378 9.10372Z" fill="#EFD3AC"/>
</svg>
