<svg width="67" height="12" viewBox="0 0 67 12" fill="none" xmlns="http://www.w3.org/2000/svg">
<path d="M12.7047 10.3574H11.0737V4.1521H17.0397V10.3574H15.4087V5.33841H12.7476V10.3574H12.7047Z" fill="#EFD3AC"/>
<path d="M19.2287 8.07605C19.2287 6.79849 19.9584 6.57035 20.4305 6.57035C20.8597 6.57035 21.6323 6.79849 21.6323 8.07605C21.6323 8.85172 21.3319 9.58176 20.4305 9.58176C19.5292 9.62739 19.2287 8.85172 19.2287 8.07605ZM17.8123 5.84031V12H19.3146V9.90115C19.8296 10.4943 20.6451 10.5399 20.8597 10.5399C22.319 10.5399 23.2204 9.53613 23.2204 8.12168C23.2204 6.61598 22.319 5.70343 20.9026 5.70343C20.5593 5.70343 19.8296 5.74906 19.2716 6.43347H19.2287V5.88594H17.8123V5.84031Z" fill="#EFD3AC"/>
<path d="M26.9545 9.80988C26.3965 10.3574 25.8386 10.5399 25.2377 10.5399C23.6067 10.5399 23.5208 9.21673 23.5208 8.6692V5.8403H25.0231V8.44106C25.0231 9.35361 25.3235 9.58175 25.8815 9.58175C26.8257 9.58175 26.9116 8.6692 26.9116 8.34981V5.8403H28.4138V10.3574H26.9116V9.80988H26.9545Z" fill="#EFD3AC"/>
<path d="M30.6887 6.75285H31.5042C31.9334 6.75285 32.3197 6.8441 32.3197 7.20912C32.3197 7.61977 31.7188 7.61977 31.5042 7.61977H30.7316V6.75285H30.6887ZM29.1435 5.8403V10.3574H32.148C33.2639 10.3574 33.9936 10.1293 33.9936 9.21673C33.9936 8.48669 33.6073 8.21292 32.7918 8.03041V7.98479C33.3498 7.89353 33.8219 7.52851 33.8219 6.93536C33.8219 5.8403 32.6201 5.8403 32.148 5.8403H29.1435ZM30.6887 8.44106H31.6329C32.3626 8.44106 32.4913 8.6692 32.4913 8.98859C32.4913 9.1711 32.4055 9.44486 31.6329 9.44486H30.6887V8.44106Z" fill="#EFD3AC"/>
<path d="M37.7277 8.4867C37.7277 9.39925 36.9981 9.62739 36.6118 9.62739C36.3113 9.62739 35.8392 9.53613 35.8392 9.12548C35.8392 8.62358 36.3972 8.53233 36.7405 8.4867C37.3414 8.39545 37.2985 8.44107 37.7277 8.25856V8.4867ZM35.968 7.30039C35.968 6.61598 36.6118 6.57035 36.9122 6.57035C37.0839 6.57035 37.7277 6.57035 37.7277 7.16351C37.7277 7.20913 37.7277 7.25476 37.7277 7.30039C37.6848 7.75666 37.2985 7.66541 36.1826 7.80229C35.2812 7.93917 34.294 8.16731 34.294 9.21674C34.294 9.58176 34.4657 10.5399 36.0538 10.5399C36.6547 10.5399 37.3414 10.3574 37.7707 9.94678L37.8994 10.4031H39.4875V10.3118C39.1871 10.2662 39.1871 9.94678 39.1871 9.44488L39.23 7.39164C39.23 6.88974 39.1871 5.70343 36.9122 5.70343C36.3543 5.70343 34.5945 5.74906 34.5086 7.34602H35.968V7.30039Z" fill="#EFD3AC"/>
<path d="M39.4017 6.75285V5.8403H44.2947V6.75285H42.6208V10.3574H41.1185V6.75285H39.4017Z" fill="#EFD3AC"/>
<path d="M46.2261 7.66541H47.5996C47.9859 7.66541 48.8014 7.71104 48.8014 8.44107C48.8014 9.03423 48.2005 9.12548 47.5567 9.12548H46.2261V7.66541ZM46.2261 5.33841H50.0032V4.1521H44.5522V10.3574H47.9001C49.5311 10.3574 50.5612 9.76427 50.5612 8.4867C50.5612 6.4791 48.458 6.43347 47.9001 6.43347H46.2261V5.33841Z" fill="#EFD3AC"/>
<path d="M54.3383 8.4867C54.3383 9.39925 53.6086 9.62739 53.2223 9.62739C52.9219 9.62739 52.4497 9.53613 52.4497 9.12548C52.4497 8.62358 53.0077 8.53233 53.3511 8.4867C53.952 8.39545 53.909 8.44107 54.3383 8.25856V8.4867ZM52.5785 7.30039C52.5785 6.61598 53.2223 6.57035 53.5228 6.57035C53.6944 6.57035 54.3383 6.57035 54.3383 7.16351C54.3383 7.20913 54.3383 7.25476 54.3383 7.30039C54.2953 7.75666 53.909 7.66541 52.7931 7.80229C51.8917 7.93917 50.9046 8.16731 50.9046 9.21674C50.9046 9.58176 51.0333 10.5399 52.6643 10.5399C53.2652 10.5399 53.952 10.3574 54.3812 9.94678H54.4241L54.5529 10.4031H56.1409V10.3118C55.8405 10.2662 55.8405 9.94678 55.8405 9.44488L55.8834 7.39164C55.8834 6.88974 55.8405 5.70343 53.5657 5.70343C53.0077 5.70343 51.2479 5.74906 51.1621 7.34602H52.5785V7.30039Z" fill="#EFD3AC"/>
<path d="M58.0295 10.3574H56.5272V5.8403H58.0295V7.52851H59.8751V5.8403H61.3773V10.3574H59.8751V8.44106H58.0295V10.3574Z" fill="#EFD3AC"/>
<path d="M65.1973 5.84031H66.8712L64.7681 7.93916L66.9571 10.3118H65.2402L63.6092 8.34981H63.5663V10.3118H62.0641V5.79468H63.5663V7.61977H63.6092L65.1973 5.84031Z" fill="#EFD3AC"/>
<path d="M3.81999 6.29657H0V10.3574H3.81999V6.29657Z" fill="#EFD3AC"/>
<path d="M0 0V5.06464H0.987187C3.6483 5.06464 4.97886 6.47909 4.97886 9.30799V10.3574H9.74311V0H0ZM7.72581 2.14449C7.72581 3.51331 7.72581 6.84411 7.72581 8.21293C7.38245 8.21293 7.2966 8.21293 6.95323 8.21293C6.60986 5.20152 4.85009 3.3308 2.0173 2.96578C2.0173 2.60076 2.0173 2.50951 2.0173 2.14449C3.30493 2.14449 6.43818 2.14449 7.72581 2.14449Z" fill="#EFD3AC"/>
</svg>
