<svg width="32" height="32" viewBox="0 0 32 32" fill="none" xmlns="http://www.w3.org/2000/svg">
<path d="M12.813 11.2382L11.1867 20.7819H13.7877L15.4153 11.2382H12.813Z" fill="#EFD3AC"/>
<path d="M9.0058 11.2489L6.45832 17.7574L6.18672 16.7747C5.68431 15.5906 4.25805 13.89 2.58359 12.8183L4.91298 20.7772L7.66516 20.7725L11.7613 11.2469L9.0058 11.2489Z" fill="#EFD3AC"/>
<path d="M5.19931 11.9319C5.04812 11.3506 4.60994 11.1773 4.06606 11.1566H0.033449L0 11.3465C3.13819 12.1078 5.2147 13.9422 6.07635 16.1478L5.19931 11.9319Z" fill="#EFD3AC"/>
<path d="M20.6869 13.0679C21.5378 13.0545 22.1546 13.2405 22.6336 13.4331L22.8684 13.5435L23.2203 11.475C22.7052 11.2817 21.8977 11.0743 20.8902 11.0743C18.32 11.0743 16.5084 12.3688 16.4944 14.2239C16.4777 15.5946 17.7848 16.3599 18.7723 16.8168C19.7858 17.2851 20.1256 17.5828 20.1209 18.0009C20.1129 18.6398 19.3128 18.9328 18.5655 18.9328C17.5239 18.9328 16.9707 18.789 16.1164 18.4331L15.7812 18.2806L15.4153 20.4166C16.0241 20.6835 17.1473 20.913 18.3133 20.925C21.0475 20.925 22.8243 19.646 22.843 17.6638C22.8544 16.5793 22.1606 15.7518 20.6574 15.0728C19.7476 14.6299 19.191 14.3356 19.1964 13.8887C19.1964 13.492 19.6687 13.0679 20.6869 13.0679Z" fill="#EFD3AC"/>
<path d="M29.8954 11.2489H27.8858C27.2616 11.2489 26.7973 11.4188 26.5231 12.041L22.661 20.7872H25.3925C25.3925 20.7872 25.838 19.6112 25.939 19.3536C26.2381 19.3536 28.8919 19.3576 29.2699 19.3576C29.3475 19.6908 29.587 20.7872 29.587 20.7872H32L29.8954 11.2489ZM26.6876 17.4002C26.9017 16.8523 27.7239 14.733 27.7239 14.733C27.7098 14.759 27.9359 14.181 28.0704 13.8218L28.2457 14.6446C28.2457 14.6446 28.7441 16.9232 28.8484 17.4002H26.6876Z" fill="#EFD3AC"/>
</svg>
