<svg width="8" height="11" viewBox="0 0 8 11" fill="none" xmlns="http://www.w3.org/2000/svg">
<path d="M4 5.225C4.37888 5.225 4.74224 5.08013 5.01015 4.82227C5.27806 4.56441 5.42857 4.21467 5.42857 3.85C5.42857 3.48533 5.27806 3.13559 5.01015 2.87773C4.74224 2.61987 4.37888 2.475 4 2.475C3.62112 2.475 3.25776 2.61987 2.98985 2.87773C2.72194 3.13559 2.57143 3.48533 2.57143 3.85C2.57143 4.21467 2.72194 4.56441 2.98985 4.82227C3.25776 5.08013 3.62112 5.225 4 5.225ZM4 0C5.06087 0 6.07828 0.405624 6.82843 1.12764C7.57857 1.84965 8 2.82892 8 3.85C8 6.7375 4 11 4 11C4 11 0 6.7375 0 3.85C0 2.82892 0.421427 1.84965 1.17157 1.12764C1.92172 0.405624 2.93913 0 4 0Z" fill="#4E4D4D"/>
</svg>
