<svg width="35" height="21" viewBox="0 0 35 21" fill="none" xmlns="http://www.w3.org/2000/svg">
<path d="M23.9063 3.25625e-07C21.2707 0.000704841 18.8683 0.999708 17.0577 2.64052C15.2457 1.00182 12.8447 0.00211405 10.212 0.00211405C10.1901 0.00211405 10.1676 0.00211405 10.1464 0.00211405C4.5399 0.0387489 0 4.59978 0 10.2141C0 15.8509 4.57512 20.4253 10.2112 20.4253C12.844 20.4253 15.245 19.427 17.0563 17.7869C16.678 17.4452 16.3356 17.0669 16.0122 16.671H18.1208C17.8031 17.0605 17.4565 17.4255 17.0838 17.7651H17.0824C17.0739 17.7742 17.0648 17.7799 17.0563 17.7876C18.869 19.4291 21.2728 20.4295 23.9098 20.4288C29.5495 20.4267 34.1197 15.853 34.1183 10.2141C34.1183 10.212 34.1183 10.2105 34.1183 10.2091C34.119 4.57019 29.546 -0.00140871 23.9063 3.25625e-07ZM16.1292 3.69518H18.0701C18.3561 4.04181 18.6218 4.40675 18.8627 4.78859H15.4C15.6233 4.42365 15.8685 4.04815 16.1292 3.69518ZM14.7969 5.86086H19.4517C19.6172 6.21453 19.7638 6.58017 19.892 6.95498H14.2453C14.3017 6.8493 14.4989 6.42377 14.7969 5.86086ZM4.16862 12.8151L4.78789 8.91071L3.39083 12.8151H2.64193L2.54471 8.91071L1.88317 12.8151H0.834146L1.70352 7.63695H3.29009L3.34574 10.8143L4.41731 7.63695H6.13844L5.28105 12.8151H4.16862ZM7.87789 12.8067L7.91382 12.3931C7.89691 12.3952 7.56579 12.8926 6.79857 12.8926C6.397 12.8926 5.74885 12.6735 5.74885 11.721C5.74885 10.51 6.73658 10.1084 7.6771 10.1084C7.82505 10.1084 8.1442 10.1352 8.1442 10.1352C8.1442 10.1352 8.18013 10.0612 8.18013 9.8611C8.18013 9.53209 7.88423 9.48701 7.47914 9.48701C6.76546 9.48701 6.29414 9.67793 6.29414 9.67793L6.45195 8.74092C6.45195 8.74092 7.02402 8.50139 7.76869 8.50139C8.15406 8.50139 9.26227 8.54225 9.26227 9.81249L8.83533 12.8067H7.87789ZM11.9239 11.4878C11.9239 12.9328 10.5241 12.8708 10.2796 12.8708C9.36724 12.8708 9.08543 12.7447 9.05936 12.7376L9.20449 11.7865C9.2059 11.7781 9.66243 11.9521 10.1704 11.9521C10.4635 11.9521 10.8439 11.9232 10.8439 11.5731C10.8439 11.0489 9.48278 11.1743 9.48278 9.92944C9.48278 8.8311 10.2986 8.50984 11.1032 8.50984C11.7245 8.50984 12.1064 8.59509 12.1064 8.59509L11.969 9.55464C11.969 9.55464 11.3793 9.50603 11.2265 9.50603C10.8397 9.50603 10.629 9.59057 10.629 9.8611C10.6283 10.405 11.9239 10.1387 11.9239 11.4878ZM13.6049 11.8669C13.7014 11.8669 13.8106 11.8337 13.8853 11.8337L13.7493 12.7574C13.6401 12.7877 13.3308 12.8976 12.9342 12.9004C12.4277 12.9046 12.0676 12.6214 12.0676 11.9789C12.0676 11.5477 12.6855 7.99484 12.7095 7.97159H13.7965L13.6859 8.60707H14.2284L14.0896 9.63073H13.514L13.2083 11.5167C13.185 11.6668 13.2266 11.8669 13.6049 11.8669ZM15.996 8.4873C17.1895 8.4873 17.5467 9.3609 17.5467 10.0774C17.5467 10.3641 17.4029 11.0686 17.4029 11.0686H15.1936C15.1936 11.0686 14.9893 11.9387 16.1567 11.9387C16.7041 11.9387 17.3114 11.671 17.3114 11.671L17.1197 12.7186C17.1197 12.7186 16.7689 12.8976 15.9714 12.8976C15.1069 12.8976 14.0931 12.5319 14.0931 10.9961C14.0938 9.66525 14.9026 8.4873 15.996 8.4873ZM18.8754 15.6191H15.2528C15.0322 15.2669 14.8265 14.9054 14.6497 14.5257H19.4707C19.2932 14.9033 19.0945 15.2683 18.8754 15.6191ZM18.6323 12.8229H17.5164L18.1948 8.60847H19.2072L19.11 9.21929C19.11 9.21929 19.4707 8.55493 19.9575 8.55493C20.0991 8.55493 20.1675 8.56902 20.1675 8.56902C20.023 8.86351 19.8955 9.13334 19.7631 9.83011C19.0078 9.56239 18.9501 11.0229 18.6323 12.8229ZM22.8841 12.7574C22.8841 12.7574 22.2993 12.9067 21.933 12.9067C20.6353 12.9067 19.9765 12.0113 19.9765 10.6551C19.9765 8.60988 21.1975 7.5207 22.4522 7.5207C23.0193 7.5207 23.6766 7.78701 23.6766 7.78701L23.4991 8.93889C23.4991 8.93889 23.0546 8.6282 22.5015 8.6282C21.7618 8.6282 21.0981 9.33413 21.0981 10.617C21.0981 11.249 21.4074 11.838 22.1796 11.838C22.5466 11.838 23.0785 11.571 23.0785 11.571L22.8841 12.7574ZM25.5013 12.8088L25.538 12.3924C25.5204 12.3945 25.1892 12.8919 24.4227 12.8919C24.0212 12.8919 23.373 12.6728 23.373 11.7203C23.373 10.5093 24.3607 10.1077 25.3006 10.1077C25.4485 10.1077 25.7684 10.1345 25.7684 10.1345C25.7684 10.1345 25.805 10.0612 25.805 9.8611C25.805 9.53209 25.5091 9.48701 25.1033 9.48701C24.3896 9.48701 23.919 9.67793 23.919 9.67793L24.0768 8.74092C24.0768 8.74092 24.6489 8.50139 25.3943 8.50139C25.7789 8.50139 26.8878 8.54225 26.8871 9.81249L26.4602 12.8067C26.4595 12.8088 25.5013 12.8088 25.5013 12.8088ZM27.7607 12.8229H26.6448L27.3232 8.60847H28.3363L28.2391 9.21929C28.2391 9.21929 28.6005 8.55493 29.0873 8.55493C29.2289 8.55493 29.2966 8.56902 29.2966 8.56902C29.1528 8.86351 29.0239 9.13334 28.8922 9.83011C28.1362 9.56239 28.0785 11.0229 27.7607 12.8229ZM31.0924 12.8116L31.1396 12.4234C31.1396 12.4234 30.7789 12.8785 30.1265 12.8785C29.2226 12.8785 28.7795 12.0056 28.7795 11.1137C28.7795 9.73429 29.6094 8.53168 30.6056 8.53168C31.2467 8.53309 31.656 9.09882 31.656 9.09882L31.8913 7.64399L32.9812 7.64188L32.1499 12.8116H31.0924ZM33.2426 12.6658C33.2137 12.7179 33.1728 12.7581 33.1207 12.7891C33.0693 12.818 33.0143 12.8328 32.9565 12.8328C32.9002 12.8328 32.8459 12.818 32.7938 12.7891C32.7417 12.7581 32.7008 12.7179 32.6719 12.6658C32.6423 12.6129 32.6282 12.5594 32.6282 12.5023C32.6282 12.4446 32.643 12.3896 32.6719 12.3375C32.7008 12.2853 32.7438 12.2431 32.7952 12.2149C32.8487 12.186 32.9016 12.1712 32.9565 12.1712C33.0129 12.1712 33.0664 12.186 33.1186 12.2149C33.1721 12.2438 33.213 12.2839 33.2426 12.3375C33.2729 12.3903 33.2862 12.4453 33.2862 12.5023C33.2862 12.5594 33.2722 12.6136 33.2426 12.6658Z" fill="black"/>
<path d="M33.1551 15.7813C33.148 15.7764 33.1417 15.7686 33.1304 15.7644C33.1191 15.7602 33.1015 15.7581 33.074 15.7581H33.0078V15.8637H33.0783C33.1114 15.8637 33.1332 15.8609 33.1459 15.8489C33.1579 15.8391 33.1635 15.8271 33.1635 15.8102C33.1635 15.7989 33.1607 15.7912 33.1551 15.7813Z" fill="black"/>
<path d="M33.3831 15.719C33.3528 15.664 33.3112 15.6253 33.2584 15.5964C33.2055 15.5675 33.152 15.5527 33.097 15.5527C33.0407 15.5527 32.9871 15.5675 32.935 15.5964C32.8829 15.6253 32.8399 15.6655 32.811 15.719C32.7807 15.7711 32.7673 15.8261 32.7673 15.8824C32.7673 15.9388 32.7821 15.9945 32.811 16.0459C32.8413 16.098 32.8822 16.1403 32.9336 16.1692C32.9857 16.1981 33.0407 16.2129 33.0985 16.2129C33.1548 16.2129 33.2098 16.1981 33.2612 16.1692C33.3126 16.1403 33.3542 16.098 33.3831 16.0459C33.4127 15.9945 33.4268 15.9395 33.4268 15.8824C33.4268 15.8254 33.412 15.7704 33.3831 15.719ZM33.1802 16.0656L33.1492 16.01C33.1245 15.9663 33.1041 15.9374 33.0886 15.9261C33.0787 15.9191 33.0632 15.9134 33.0435 15.9134H33.0104V16.0649H32.9526V15.7091H33.0752C33.1175 15.7091 33.1478 15.7127 33.1647 15.7197C33.1837 15.7267 33.1999 15.7366 33.2098 15.7542C33.221 15.7704 33.226 15.788 33.226 15.8064C33.226 15.8324 33.2161 15.8543 33.1985 15.8747C33.1802 15.893 33.1548 15.905 33.1245 15.9071C33.1372 15.9113 33.1471 15.9184 33.1548 15.9261C33.1696 15.9402 33.1865 15.9635 33.2077 15.9959L33.2513 16.0656H33.1802Z" fill="black"/>
<path d="M7.76527 10.9167C6.96846 10.9167 6.80713 11.2746 6.80713 11.5727C6.80713 11.7262 6.89519 11.9827 7.23266 11.9827C7.88715 11.9827 8.02312 11.1246 8.00199 10.9421C7.97099 10.9358 7.95126 10.9175 7.76527 10.9167Z" fill="black"/>
<path d="M16.0006 9.46069C15.4081 9.46069 15.2939 10.1349 15.2939 10.2061H16.5008C16.5008 10.1518 16.6142 9.46069 16.0006 9.46069Z" fill="black"/>
<path d="M30.7935 9.57812C30.3151 9.57812 29.9368 10.1333 29.9375 10.9766C29.9375 11.4909 30.1207 11.8206 30.5124 11.8206C31.1014 11.8206 31.3853 11.052 31.3853 10.4792C31.3853 9.84725 31.1845 9.57812 30.7935 9.57812Z" fill="black"/>
<path d="M33.1928 12.3656C33.1682 12.3219 33.1337 12.2881 33.09 12.2634C33.0463 12.2388 33.0019 12.2268 32.9554 12.2268C32.9103 12.2268 32.8645 12.2395 32.8209 12.2634C32.7772 12.286 32.7427 12.3212 32.718 12.3656C32.6933 12.41 32.6807 12.4572 32.6807 12.503C32.6807 12.5502 32.6933 12.5967 32.7166 12.6397C32.7427 12.6833 32.7758 12.7164 32.8195 12.7425C32.8631 12.7665 32.9082 12.7806 32.9554 12.7806C33.0026 12.7806 33.0491 12.7665 33.0914 12.7425C33.1351 12.7179 33.1689 12.684 33.1943 12.6397C33.2189 12.596 33.2302 12.5502 33.2302 12.503C33.2302 12.4565 33.2175 12.41 33.1928 12.3656ZM33.04 12.684L33.0083 12.6291C32.9836 12.5847 32.9639 12.5565 32.9491 12.546C32.9371 12.5368 32.923 12.5326 32.9026 12.5326H32.8702V12.6833H32.811V12.3283H32.9343C32.9759 12.3283 33.0069 12.3318 33.0245 12.3395C33.0421 12.3459 33.0576 12.3578 33.0696 12.3733C33.0815 12.3888 33.0858 12.4065 33.0858 12.4255C33.0858 12.4515 33.0759 12.4734 33.0576 12.4931C33.0393 12.5135 33.0139 12.522 32.9843 12.5255C32.9984 12.5312 33.0076 12.5375 33.0146 12.5438C33.0294 12.5586 33.0463 12.5798 33.0667 12.6136L33.1104 12.684H33.04Z" fill="black"/>
<path d="M25.3895 10.9167C24.5927 10.9167 24.4314 11.2746 24.4314 11.5727C24.4314 11.7262 24.5188 11.9827 24.8569 11.9827C25.5114 11.9827 25.6467 11.1246 25.6263 10.9421C25.5946 10.9358 25.5748 10.9175 25.3895 10.9167Z" fill="black"/>
<path d="M33.0162 12.4006C33.0106 12.3936 33.0028 12.388 32.9922 12.383C32.9803 12.3795 32.9627 12.376 32.9345 12.376V12.3767H32.8704V12.4838H32.9401C32.9732 12.4838 32.9951 12.4795 33.0084 12.469C33.019 12.4584 33.0254 12.445 33.0254 12.4295C33.0254 12.4175 33.0225 12.4105 33.0162 12.4006Z" fill="black"/>
</svg>
