<svg width="28" height="17" viewBox="0 0 28 17" fill="none" xmlns="http://www.w3.org/2000/svg">
<path d="M5.27989 0.944092C7.76992 0.944092 9.48603 2.60441 9.48603 4.98094C9.48603 7.39003 7.73627 9.05035 5.21259 9.05035H2.48701V13.25H0.501709V0.944092H5.27989ZM2.48701 7.45514H4.7415C6.45761 7.45514 7.43343 6.54359 7.43343 5.0135C7.43343 3.45085 6.45761 2.57185 4.7415 2.57185H2.45336V7.45514H2.48701ZM9.99076 10.7432C9.99076 9.18057 11.2358 8.20391 13.4566 8.07369L16.014 7.94347V7.25981C16.014 6.2506 15.3073 5.6646 14.1633 5.6646C13.0528 5.6646 12.3799 6.18549 12.2116 6.96681H10.3946C10.4955 5.33905 11.9424 4.13451 14.2306 4.13451C16.485 4.13451 17.932 5.27394 17.932 7.09703V13.2825H16.1149V11.8175H16.0813C15.5429 12.8268 14.3651 13.4453 13.1538 13.4453C11.2694 13.4453 9.99076 12.3384 9.99076 10.7432ZM16.014 9.92934V9.21313L13.7258 9.34335C12.5817 9.40846 11.9424 9.89678 11.9424 10.6781C11.9424 11.4594 12.6154 11.9803 13.6249 11.9803C14.9708 11.9803 16.014 11.1013 16.014 9.92934ZM19.6144 16.6032V15.1056C19.749 15.1382 20.0855 15.1382 20.2201 15.1382C21.095 15.1382 21.5661 14.7801 21.8689 13.8685C21.8689 13.836 22.0372 13.3151 22.0372 13.3151L18.6722 4.32984H20.7248L23.0803 11.6548H23.1139L25.4694 4.32984H27.4883L24.0224 13.8034C23.2149 15.9846 22.3063 16.6683 20.3883 16.6683C20.2537 16.6357 19.7827 16.6357 19.6144 16.6032Z" fill="#131108"/>
</svg>
