<svg width="79" height="15" viewBox="0 0 79 15" fill="none" xmlns="http://www.w3.org/2000/svg">
<path d="M14.99 12.2203H13.0657V4.89893H20.1048V12.2203H18.1804V6.2986H15.0407V12.2203H14.99Z" fill="#131108"/>
<path d="M22.6873 9.52861C22.6873 8.02126 23.5482 7.75209 24.1052 7.75209C24.6116 7.75209 25.5232 8.02126 25.5232 9.52861C25.5232 10.4438 25.1687 11.3051 24.1052 11.3051C23.0417 11.359 22.6873 10.4438 22.6873 9.52861ZM21.0161 6.89075V14.1583H22.7885V11.682C23.3962 12.3818 24.3584 12.4356 24.6116 12.4356C26.3334 12.4356 27.3969 11.2513 27.3969 9.58244C27.3969 7.80592 26.3334 6.72925 24.6623 6.72925C24.2571 6.72925 23.3962 6.78308 22.7379 7.59059H22.6873V6.94458H21.0161V6.89075Z" fill="#131108"/>
<path d="M31.8025 11.5742C31.1442 12.2202 30.4858 12.4355 29.7769 12.4355C27.8525 12.4355 27.7512 10.8743 27.7512 10.2283V6.89062H29.5237V9.95915C29.5237 11.0358 29.8781 11.305 30.5365 11.305C31.6506 11.305 31.7519 10.2283 31.7519 9.85148V6.89062H33.5243V12.2202H31.7519V11.5742H31.8025Z" fill="#131108"/>
<path d="M36.2083 7.9673H37.1705C37.6769 7.9673 38.1327 8.07497 38.1327 8.50564C38.1327 8.99014 37.4237 8.99014 37.1705 8.99014H36.259V7.9673H36.2083ZM34.3853 6.89062V12.2202H37.9301C39.2468 12.2202 40.1077 11.951 40.1077 10.8743C40.1077 10.013 39.6519 9.68998 38.6897 9.47465V9.42081C39.3481 9.31315 39.9051 8.88247 39.9051 8.18264C39.9051 6.89062 38.4872 6.89062 37.9301 6.89062H34.3853ZM36.2083 9.95915H37.3224C38.1833 9.95915 38.3352 10.2283 38.3352 10.6052C38.3352 10.8205 38.234 11.1435 37.3224 11.1435H36.2083V9.95915Z" fill="#131108"/>
<path d="M44.5134 10.0131C44.5134 11.0898 43.6525 11.359 43.1968 11.359C42.8423 11.359 42.2852 11.2513 42.2852 10.7668C42.2852 10.1746 42.9436 10.0669 43.3487 10.0131C44.0577 9.90544 44.007 9.95928 44.5134 9.74394V10.0131ZM42.4372 8.61343C42.4372 7.80592 43.1968 7.75209 43.5513 7.75209C43.7538 7.75209 44.5134 7.75209 44.5134 8.45193C44.5134 8.50576 44.5134 8.5596 44.5134 8.61343C44.4628 9.15177 44.007 9.0441 42.6904 9.2056C41.6269 9.36711 40.4622 9.63627 40.4622 10.8745C40.4622 11.3051 40.6647 12.4356 42.5384 12.4356C43.2474 12.4356 44.0577 12.2203 44.5641 11.7358L44.716 12.2741H46.5897V12.1665C46.2352 12.1126 46.2352 11.7358 46.2352 11.1436L46.2859 8.7211C46.2859 8.12893 46.2352 6.72925 43.5513 6.72925C42.8929 6.72925 40.8166 6.78308 40.7154 8.66727H42.4372V8.61343Z" fill="#131108"/>
<path d="M46.4885 7.9673V6.89062H52.2616V7.9673H50.2866V12.2202H48.5142V7.9673H46.4885Z" fill="#131108"/>
<path d="M54.5402 9.04413H56.1607C56.6165 9.04413 57.5786 9.09796 57.5786 9.9593C57.5786 10.6591 56.8697 10.7668 56.1101 10.7668H54.5402V9.04413ZM54.5402 6.2986H58.9966V4.89893H52.5652V12.2203H56.5152C58.4395 12.2203 59.6549 11.5205 59.6549 10.0131C59.6549 7.64445 57.1735 7.59062 56.5152 7.59062H54.5402V6.2986Z" fill="#131108"/>
<path d="M64.1113 10.0131C64.1113 11.0898 63.2504 11.359 62.7947 11.359C62.4402 11.359 61.8831 11.2513 61.8831 10.7668C61.8831 10.1746 62.5415 10.0669 62.9466 10.0131C63.6556 9.90544 63.6049 9.95928 64.1113 9.74394V10.0131ZM62.0351 8.61343C62.0351 7.80592 62.7947 7.75209 63.1492 7.75209C63.3517 7.75209 64.1113 7.75209 64.1113 8.45193C64.1113 8.50576 64.1113 8.5596 64.1113 8.61343C64.0607 9.15177 63.6049 9.0441 62.2883 9.2056C61.2248 9.36711 60.0601 9.63627 60.0601 10.8745C60.0601 11.3051 60.212 12.4356 62.1363 12.4356C62.8453 12.4356 63.6556 12.2203 64.162 11.7358H64.2126L64.3645 12.2741H66.2383V12.1665C65.8838 12.1126 65.8838 11.7358 65.8838 11.1436L65.9344 8.7211C65.9344 8.12893 65.8838 6.72925 63.1998 6.72925C62.5415 6.72925 60.4652 6.78308 60.3639 8.66727H62.0351V8.61343Z" fill="#131108"/>
<path d="M68.4665 12.2202H66.6941V6.89062H68.4665V8.88247H70.6441V6.89062H72.4165V12.2202H70.6441V9.95915H68.4665V12.2202Z" fill="#131108"/>
<path d="M76.9236 6.8905H78.8986L76.4172 9.36686L78.9999 12.1662H76.9742L75.0499 9.85136H74.9992V12.1662H73.2268V6.83667H74.9992V8.99002H75.0499L76.9236 6.8905Z" fill="#131108"/>
<path d="M4.50704 7.42896H0V12.2202H4.50704V7.42896Z" fill="#131108"/>
<path d="M0.000244141 0V5.97555H1.16498C4.30472 5.97555 5.87459 7.6444 5.87459 10.9821V12.2203H11.4957V0H0.000244141ZM9.1156 2.53019C9.1156 4.1452 9.1156 8.07507 9.1156 9.69009C8.71048 9.69009 8.6092 9.69009 8.20407 9.69009C7.79894 6.13705 5.72266 3.92987 2.38037 3.4992C2.38037 3.06853 2.38037 2.96086 2.38037 2.53019C3.89959 2.53019 7.59638 2.53019 9.1156 2.53019Z" fill="#131108"/>
</svg>
