<svg width="44" height="14" viewBox="0 0 44 14" fill="none" xmlns="http://www.w3.org/2000/svg">
<path d="M17.462 0.223389L15.2456 13.2297H18.7903L21.0085 0.223389H17.462Z" fill="black"/>
<path d="M12.2736 0.238087L8.80181 9.10803L8.43166 7.76874C7.74697 6.15503 5.80323 3.83748 3.52124 2.37694L6.69578 13.2234L10.4465 13.2171L16.0289 0.235352L12.2736 0.238087Z" fill="black"/>
<path d="M7.08574 1.16872C6.8797 0.376454 6.28253 0.140323 5.54132 0.112061H0.045585L0 0.370984C4.27679 1.4085 7.10671 3.90838 8.28098 6.91426L7.08574 1.16872Z" fill="black"/>
<path d="M28.1925 2.71687C29.3522 2.69863 30.1928 2.95209 30.8456 3.21466L31.1656 3.36509L31.6451 0.546108C30.9431 0.282626 29.8427 0 28.4697 0C24.9669 0 22.498 1.76414 22.4789 4.29229C22.4561 6.16036 24.2375 7.20335 25.5832 7.82604C26.9644 8.46423 27.4276 8.86994 27.4212 9.43975C27.4103 10.3104 26.3199 10.7098 25.3015 10.7098C23.882 10.7098 23.128 10.5137 21.9638 10.0287L21.507 9.82084L21.0083 12.7319C21.8379 13.0957 23.3687 13.4084 24.9578 13.4248C28.6839 13.4248 31.1054 11.6816 31.1309 8.98025C31.1464 7.50239 30.201 6.37461 28.1524 5.44924C26.9125 4.84569 26.1539 4.44454 26.1612 3.83553C26.1612 3.29489 26.8049 2.71687 28.1925 2.71687Z" fill="black"/>
<path d="M40.7422 0.237793H38.0034C37.1528 0.237793 36.5201 0.469365 36.1463 1.31725L30.8831 13.2368H34.6055C34.6055 13.2368 35.2127 11.6341 35.3504 11.2831C35.7579 11.2831 39.3746 11.2885 39.8897 11.2885C39.9955 11.7425 40.3219 13.2368 40.3219 13.2368H43.6104L40.7422 0.237793ZM36.3706 8.62088C36.6623 7.8742 37.7828 4.98593 37.7828 4.98593C37.7637 5.02149 38.0718 4.23378 38.2551 3.74419L38.4939 4.86559C38.4939 4.86559 39.1732 7.97084 39.3154 8.62088H36.3706Z" fill="black"/>
</svg>
